<svg xmlns="http://www.w3.org/2000/svg" viewBox="0 0 375.85 217.28"><defs><style>.cls-1{font-size:133.72px;}.cls-1,.cls-2,.cls-3,.cls-4,.cls-5,.cls-6{fill:#0e3976;}.cls-1,.cls-2,.cls-4,.cls-5,.cls-6{font-family:AveriaSerifLibre-Italic, Averia Serif Libre;font-style:italic;}.cls-2{font-size:165.12px;}.cls-4{font-size:176.24px;}.cls-4,.cls-5,.cls-6{stroke:#fff;stroke-miterlimit:10;}.cls-5{font-size:171.69px;}.cls-6{font-size:179.64px;}</style></defs><title>Asset 7</title><g id="Layer_2" data-name="Layer 2"><g id="Layer_1-2" data-name="Layer 1"><text class="cls-1" transform="matrix(0.37, 1.11, -0.95, 0.32, 29.99, 57.51)">l</text><text class="cls-2" transform="translate(72.14 168.75) rotate(8.96) scale(0.97 1)">l</text><path class="cls-3" d="M53.21,70.18,351,40.88"/><path class="cls-3" d="M53.21,77.68,169.86,66.21,285.91,54.79,351,48.38a8.08,8.08,0,0,0,5.3-2.19,7.67,7.67,0,0,0,2.2-5.31c-.17-3.73-3.32-7.91-7.5-7.5L234.4,44.86,118.34,56.28l-65.13,6.4a8.11,8.11,0,0,0-5.3,2.2,7.65,7.65,0,0,0-2.2,5.3c.17,3.74,3.32,7.92,7.5,7.5Z"/><text class="cls-4" transform="translate(100.03 165.13) rotate(8.96) scale(0.91 1)">r</text><text class="cls-5" transform="translate(154.63 155.37) rotate(8.96) scale(0.93 1)">e</text><text class="cls-4" transform="translate(201.03 155.13) rotate(8.96) scale(0.91 1)">y</text><text class="cls-6" transform="translate(267.93 149.25) rotate(8.96) scale(0.89 1)">d</text></g></g></svg>