<svg xmlns="http://www.w3.org/2000/svg" viewBox="0 0 579 425"><defs><style>.cls-1{fill:#fff;}.cls-2{font-size:133.72px;}.cls-2,.cls-3,.cls-4,.cls-5,.cls-6,.cls-7,.cls-8{fill:#0e3976;}.cls-2,.cls-3,.cls-5,.cls-6,.cls-7{font-family:AveriaSerifLibre-Italic, Averia Serif Libre;font-style:italic;}.cls-3{font-size:165.12px;}.cls-5{font-size:176.24px;}.cls-5,.cls-6,.cls-7{stroke:#fff;}.cls-14,.cls-5,.cls-6,.cls-7{stroke-miterlimit:10;}.cls-6{font-size:171.69px;}.cls-7{font-size:179.64px;}.cls-8{font-size:17px;font-family:AveriaSerifLibre-Bold, Averia Serif Libre;font-weight:700;letter-spacing:0.4em;}.cls-9{letter-spacing:0.39em;}.cls-10{letter-spacing:0.39em;}.cls-11{letter-spacing:0.39em;}.cls-12{letter-spacing:0.38em;}.cls-13{letter-spacing:0.4em;}.cls-14{fill:none;stroke:#0e3976;stroke-width:2px;}</style></defs><title>Asset 2</title><g id="Layer_2" data-name="Layer 2"><g id="Layer_1-2" data-name="Layer 1"><rect class="cls-1" width="579" height="425"/><text class="cls-2" transform="matrix(0.37, 1.11, -0.95, 0.32, 114.81, 123.7)">l</text><text class="cls-3" transform="matrix(0.96, 0.15, -0.16, 0.99, 156.86, 234.95)">l</text><path class="cls-4" d="M138,136.37l297.83-29.3"/><path class="cls-4" d="M138,143.87,254.64,132.4,370.7,121l65.13-6.41a8.06,8.06,0,0,0,5.3-2.2,7.63,7.63,0,0,0,2.2-5.3c-.17-3.73-3.32-7.91-7.5-7.5L319.18,111.05l-116,11.41L138,128.87a8,8,0,0,0-5.3,2.2,7.63,7.63,0,0,0-2.2,5.3c.17,3.74,3.32,7.91,7.5,7.5Z"/><text class="cls-5" transform="matrix(0.9, 0.14, -0.16, 0.99, 184.75, 231.33)">r</text><text class="cls-6" transform="matrix(0.92, 0.14, -0.16, 0.99, 239.34, 221.56)">e</text><text class="cls-5" transform="matrix(0.9, 0.14, -0.16, 0.99, 285.75, 221.33)">y</text><text class="cls-7" transform="matrix(0.88, 0.14, -0.16, 0.99, 352.65, 215.45)">d</text><text class="cls-8" transform="translate(118.57 305.51) scale(0.79 1)">TÍN SØ<tspan class="cls-9" x="97.68" y="0">L</tspan><tspan class="cls-10" x="114.47" y="0">UMIÐ</tspan><tspan class="cls-11" x="188.79" y="0">S</tspan><tspan class="cls-12" x="205.02" y="0">T</tspan><tspan x="222.57" y="0">ØÐ</tspan><tspan class="cls-11" x="261.18" y="0"> </tspan><tspan class="cls-13" x="272.17" y="0">Á NETINUM</tspan></text><line class="cls-14" x1="114" y1="284.5" x2="457" y2="284.5"/><line class="cls-14" x1="114" y1="314" x2="457" y2="314"/></g></g></svg>