<?xml version="1.0" encoding="iso-8859-1"?>
<!-- Generator: Adobe Illustrator 19.0.0, SVG Export Plug-In . SVG Version: 6.00 Build 0)  -->
<svg version="1.1" id="Capa_1" xmlns="http://www.w3.org/2000/svg" xmlns:xlink="http://www.w3.org/1999/xlink" x="0px" y="0px"
	 viewBox="0 0 512 512" style="enable-background:new 0 0 512 512;" xml:space="preserve">
<circle style="fill:#303751;" cx="256" cy="256" r="256"/>
<path style="fill:#6FCAF4;" d="M492.147,266.007v-20.015c0-64.108-71.065-116.077-158.726-116.077s-158.726,51.97-158.726,116.078
	v20.015"/>
<g>
	<ellipse style="fill:#2E99CC;" cx="333.42" cy="266.01" rx="158.73" ry="116.08"/>
	<path style="fill:#2E99CC;" d="M19.853,245.993v20.015c0,64.108,71.065,116.077,158.726,116.077s158.726-51.969,158.726-116.077
		v-11.069"/>
</g>
<path style="fill:#6FCAF4;" d="M336.836,254.938c-4.85,46.467-47.109,85.291-104.81,100.375
	c-16.702,4.375-34.699,6.752-53.457,6.752c-87.655,0-158.717-51.97-158.717-116.078c0-64.107,71.061-116.066,158.718-116.066
	c38.55,0,73.891,10.045,101.385,26.77c-56.82,14.847-98.663,52.719-104.547,98.248L336.836,254.938L336.836,254.938L336.836,254.938
	z"/>
<g>
</g>
<g>
</g>
<g>
</g>
<g>
</g>
<g>
</g>
<g>
</g>
<g>
</g>
<g>
</g>
<g>
</g>
<g>
</g>
<g>
</g>
<g>
</g>
<g>
</g>
<g>
</g>
<g>
</g>
</svg>
